<?xml version="1.0" encoding="utf-8"?>
<svg xmlns="http://www.w3.org/2000/svg" width="20.152" height="20.151" viewBox="0 0 20.152 20.151">
  <g id="insta" transform="translate(-1895.924 -7344.925)">
    <g id="Vector_Smart_Object" data-name="Vector Smart Object" transform="translate(1880.821 7336.119)">
      <g id="Group_37" data-name="Group 37">
        <path id="Path_85" data-name="Path 85" d="M29.8,8.806H20.558A5.461,5.461,0,0,0,15.1,14.261V23.5a5.461,5.461,0,0,0,5.455,5.455H29.8A5.461,5.461,0,0,0,35.254,23.5V14.261A5.461,5.461,0,0,0,29.8,8.806ZM25.179,24.45a5.569,5.569,0,1,1,5.569-5.569,5.575,5.575,0,0,1-5.569,5.569Zm6.166-10.3a1.628,1.628,0,1,1,1.628-1.628,1.63,1.63,0,0,1-1.628,1.628Zm-.525.525"/>
        <path id="Path_86" data-name="Path 86" d="M25.179,15.526a3.355,3.355,0,1,0,3.355,3.355,3.359,3.359,0,0,0-3.355-3.355Zm0,0"/>
      </g>
    </g>
    <path id="Color_Overlay" data-name="Color Overlay" d="M1901.379,7365.075a5.461,5.461,0,0,1-5.455-5.455v-9.242a5.46,5.46,0,0,1,5.455-5.453h9.242a5.46,5.46,0,0,1,5.455,5.453v9.242a5.461,5.461,0,0,1-5.455,5.455Zm-.946-10.076a5.568,5.568,0,1,0,5.567-5.567A5.575,5.575,0,0,0,1900.432,7355Zm10.107-6.362a1.628,1.628,0,1,0,1.629-1.628A1.628,1.628,0,0,0,1910.539,7348.638Zm-7.894,6.362a3.355,3.355,0,1,1,3.355,3.355A3.359,3.359,0,0,1,1902.645,7355Z" fill="#fff"/>
  </g>
</svg>
