<?xml version="1.0" encoding="utf-8"?>
<svg xmlns="http://www.w3.org/2000/svg" width="22.306" height="20.075" viewBox="0 0 22.306 20.075">
  <g id="linkedin" transform="translate(-228.565 -160.885)">
    <path id="Path_83" data-name="Path 83" d="M233.476,180.961h-4.348V167.323h4.348Zm-2.286-15.344h-.031a2.393,2.393,0,0,1-2.594-2.363,2.655,2.655,0,1,1,2.625,2.363Zm19.681,15.344h-4.93V173.9c0-1.847-.771-3.108-2.467-3.108a2.485,2.485,0,0,0-2.354,1.671,3.083,3.083,0,0,0-.107,1.114v7.38h-4.884s.063-12.5,0-13.638h4.884v2.14c.289-.936,1.849-2.271,4.341-2.271,3.089,0,5.517,1.962,5.517,6.185Z" transform="translate(0)" fill="#fff"/>
  </g>
</svg>
