<?xml version="1.0" encoding="utf-8"?>
<svg xmlns="http://www.w3.org/2000/svg" width="20.386" height="17.838" viewBox="0 0 20.386 17.838">
  <g id="twitter" transform="translate(-59.834 -59.569)">
    <g id="Group_36" data-name="Group 36">
      <g id="Group_35" data-name="Group 35">
        <path id="Path_82" data-name="Path 82" d="M80.221,61.68a7.754,7.754,0,0,1-2.406.709A4.474,4.474,0,0,0,79.66,59.9,8.38,8.38,0,0,1,77,61a4.036,4.036,0,0,0-3.051-1.427,4.35,4.35,0,0,0-4.182,4.5,4.947,4.947,0,0,0,.105,1.021,11.612,11.612,0,0,1-8.62-4.7,4.754,4.754,0,0,0-.563,2.263A4.571,4.571,0,0,0,62.548,66.4a3.95,3.95,0,0,1-1.9-.559V65.9a4.445,4.445,0,0,0,3.355,4.416,3.957,3.957,0,0,1-1.1.148,3.324,3.324,0,0,1-.782-.08,4.214,4.214,0,0,0,3.905,3.126,7.984,7.984,0,0,1-5.194,1.927,7.671,7.671,0,0,1-1-.063,11.186,11.186,0,0,0,6.412,2.031c7.692,0,11.9-6.864,11.9-12.813,0-.191,0-.384-.014-.576A9.119,9.119,0,0,0,80.221,61.68Z" fill="#fff"/>
      </g>
    </g>
  </g>
</svg>
