<?xml version="1.0" encoding="utf-8"?>
<svg xmlns="http://www.w3.org/2000/svg" width="19.91" height="17.919" viewBox="0 0 19.91 17.919">
  <g id="vimeo" transform="translate(-62.57 -280.019)">
    <path id="Path_84" data-name="Path 84" d="M82.47,284.162q-.131,3.029-4.058,8.283-4.06,5.495-6.874,5.493-1.739,0-2.944-3.348-.806-3.074-1.607-6.144-.9-3.353-1.919-3.352a6.122,6.122,0,0,0-1.562.979l-.936-1.259q1.471-1.346,2.9-2.7a6.507,6.507,0,0,1,2.944-1.864q2.317-.234,2.857,3.3.574,3.819.8,4.75.671,3.164,1.473,3.162.622,0,1.874-2.045a8.232,8.232,0,0,0,1.338-3.121q.179-1.768-1.338-1.765a3.669,3.669,0,0,0-1.473.325q1.475-4.98,5.624-4.84Q82.647,280.113,82.47,284.162Z" transform="translate(0)" fill="#fff"/>
  </g>
</svg>
